<?xml version="1.0" standalone="no"?>
<!DOCTYPE svg PUBLIC "-//W3C//DTD SVG 20010904//EN"
 "http://www.w3.org/TR/2001/REC-SVG-20010904/DTD/svg10.dtd">
<svg version="1.0" xmlns="http://www.w3.org/2000/svg"
 width="512.000000pt" height="512.000000pt" viewBox="0 0 512.000000 512.000000"
 preserveAspectRatio="xMidYMid meet">

<g transform="translate(0.000000,512.000000) scale(0.100000,-0.100000)"
fill="#000000" stroke="none">
<path d="M1157 3506 c-80 -22 -135 -76 -157 -155 -14 -52 -14 -1528 1 -1585
22 -90 101 -151 208 -162 77 -8 148 9 196 48 68 56 69 67 75 413 l5 310 340 5
c312 5 343 7 372 24 102 62 104 261 2 321 -32 19 -57 20 -374 25 l-340 5 0
190 0 190 372 5 c356 5 373 6 399 26 59 43 69 68 69 164 0 99 -13 128 -76 165
-33 19 -54 20 -539 22 -392 2 -516 -1 -553 -11z"/>
<path d="M2708 3506 c-63 -17 -111 -56 -139 -113 l-24 -48 -3 -748 c-2 -487 1
-768 8 -805 13 -76 53 -131 115 -162 41 -21 64 -25 130 -24 116 0 181 38 222
129 15 35 18 77 21 318 l3 277 96 0 c112 0 165 -13 203 -52 15 -15 87 -137
160 -270 73 -134 146 -262 163 -286 62 -86 172 -131 286 -118 144 17 213 124
166 257 -21 59 -148 289 -201 365 -42 60 -115 119 -161 130 -25 7 -32 24 -9
24 7 0 50 18 94 40 135 68 235 195 273 350 20 79 17 260 -5 334 -69 232 -229
361 -495 401 -128 20 -832 20 -903 1z m820 -395 c103 -46 147 -138 122 -255
-15 -71 -51 -115 -122 -147 -49 -22 -69 -24 -270 -27 l-218 -4 0 232 0 232
218 -4 c202 -3 221 -5 270 -27z"/>
</g>
</svg>
